<svg width="24" height="25" viewBox="0 0 24 25" fill="none" xmlns="http://www.w3.org/2000/svg">
<path d="M16 5.5C16 4.56812 16 4.10218 16.1522 3.73463C16.3552 3.24458 16.7446 2.85523 17.2346 2.65224C17.6022 2.5 18.0681 2.5 19 2.5C19.9319 2.5 20.3978 2.5 20.7654 2.65224C21.2554 2.85523 21.6448 3.24458 21.8478 3.73463C22 4.10218 22 4.56812 22 5.5V9.5C22 10.4319 22 10.8978 21.8478 11.2654C21.6448 11.7554 21.2554 12.1448 20.7654 12.3478C20.3978 12.5 19.9319 12.5 19 12.5C18.0681 12.5 17.6022 12.5 17.2346 12.3478C16.7446 12.1448 16.3552 11.7554 16.1522 11.2654C16 10.8978 16 10.4319 16 9.5V5.5Z" stroke="white" stroke-width="1.5"/>
<path d="M16 19.5C16 18.5681 16 18.1022 16.1522 17.7346C16.3552 17.2446 16.7446 16.8552 17.2346 16.6522C17.6022 16.5 18.0681 16.5 19 16.5C19.9319 16.5 20.3978 16.5 20.7654 16.6522C21.2554 16.8552 21.6448 17.2446 21.8478 17.7346C22 18.1022 22 18.5681 22 19.5C22 20.4319 22 20.8978 21.8478 21.2654C21.6448 21.7554 21.2554 22.1448 20.7654 22.3478C20.3978 22.5 19.9319 22.5 19 22.5C18.0681 22.5 17.6022 22.5 17.2346 22.3478C16.7446 22.1448 16.3552 21.7554 16.1522 21.2654C16 20.8978 16 20.4319 16 19.5Z" stroke="white" stroke-width="1.5"/>
<path d="M2 16.5C2 14.6144 2 13.6716 2.58579 13.0858C3.17157 12.5 4.11438 12.5 6 12.5H8C9.88562 12.5 10.8284 12.5 11.4142 13.0858C12 13.6716 12 14.6144 12 16.5V18.5C12 20.3856 12 21.3284 11.4142 21.9142C10.8284 22.5 9.88562 22.5 8 22.5H6C4.11438 22.5 3.17157 22.5 2.58579 21.9142C2 21.3284 2 20.3856 2 18.5V16.5Z" stroke="white" stroke-width="1.5"/>
<path d="M2 5.5C2 4.56812 2 4.10218 2.15224 3.73463C2.35523 3.24458 2.74458 2.85523 3.23463 2.65224C3.60218 2.5 4.06812 2.5 5 2.5H9C9.93188 2.5 10.3978 2.5 10.7654 2.65224C11.2554 2.85523 11.6448 3.24458 11.8478 3.73463C12 4.10218 12 4.56812 12 5.5C12 6.43188 12 6.89782 11.8478 7.26537C11.6448 7.75542 11.2554 8.14477 10.7654 8.34776C10.3978 8.5 9.93188 8.5 9 8.5H5C4.06812 8.5 3.60218 8.5 3.23463 8.34776C2.74458 8.14477 2.35523 7.75542 2.15224 7.26537C2 6.89782 2 6.43188 2 5.5Z" stroke="white" stroke-width="1.5"/>
</svg>
