<svg width="24" height="25" viewBox="0 0 24 25" fill="none" xmlns="http://www.w3.org/2000/svg">
<path d="M3 11.5C3 7.75027 3 5.8754 3.95491 4.56107C4.26331 4.1366 4.6366 3.76331 5.06107 3.45491C6.3754 2.5 8.25027 2.5 12 2.5C15.7497 2.5 17.6246 2.5 18.9389 3.45491C19.3634 3.76331 19.7367 4.1366 20.0451 4.56107C21 5.8754 21 7.75027 21 11.5V13.5C21 17.2497 21 19.1246 20.0451 20.4389C19.7367 20.8634 19.3634 21.2367 18.9389 21.5451C17.6246 22.5 15.7497 22.5 12 22.5C8.25027 22.5 6.3754 22.5 5.06107 21.5451C4.6366 21.2367 4.26331 20.8634 3.95491 20.4389C3 19.1246 3 17.2497 3 13.5V11.5Z" stroke="black" stroke-width="1.5" stroke-linecap="round" stroke-linejoin="round"/>
<path d="M15 10H7M10 15H7" stroke="black" stroke-width="1.5" stroke-linecap="round" stroke-linejoin="round"/>
</svg>
